<svg width="64" height="64" viewBox="0 0 64 64" fill="none" xmlns="http://www.w3.org/2000/svg">
<g id="Layer_1" clip-path="url(#clip0_6_51)">
<path id="Vector" d="M62.8267 6.82668L54.08 15.6C50.1333 19.5733 43.2267 19.5733 39.2533 15.6L35.0933 11.44C34.16 10.5067 32.5333 10.5067 31.6 11.44L22.08 20.9333C20.1067 22.9067 17.4667 24 14.6667 24C11.8667 24 9.22667 22.9067 7.25333 20.9333L1.17333 14.8267C-0.373333 13.2533 -0.373333 10.72 1.17333 9.17335C2.74667 7.60001 5.28 7.62668 6.82667 9.17335L12.9067 15.28C13.84 16.2133 15.4667 16.2133 16.4 15.28L25.92 5.78668C29.8667 1.84001 36.7733 1.84001 40.7467 5.78668L44.9067 9.94668C45.84 10.88 47.4667 10.88 48.4 9.94668L57.1733 1.17335C58.72 -0.399986 61.2533 -0.399986 62.8267 1.17335C64.4 2.74668 64.4 5.28001 62.8267 6.82668ZM17.3333 34.6667C15.12 34.6667 13.3333 36.4533 13.3333 38.6667V60C13.3333 62.2134 15.12 64 17.3333 64C19.5467 64 21.3333 62.2134 21.3333 60V38.6667C21.3333 36.4533 19.5467 34.6667 17.3333 34.6667ZM4 29.3333C1.78667 29.3333 0 31.12 0 33.3333V60C0 62.2134 1.78667 64 4 64C6.21333 64 8 62.2134 8 60V33.3333C8 31.12 6.21333 29.3333 4 29.3333ZM30.6667 24C28.4533 24 26.6667 25.7867 26.6667 28V60C26.6667 62.2134 28.4533 64 30.6667 64C32.88 64 34.6667 62.2134 34.6667 60V28C34.6667 25.7867 32.88 24 30.6667 24ZM44 29.3333C41.7867 29.3333 40 31.12 40 33.3333V60C40 62.2134 41.7867 64 44 64C46.2133 64 48 62.2134 48 60V33.3333C48 31.12 46.2133 29.3333 44 29.3333ZM57.3333 21.3333C55.12 21.3333 53.3333 23.12 53.3333 25.3333V60C53.3333 62.2134 55.12 64 57.3333 64C59.5467 64 61.3333 62.2134 61.3333 60V25.3333C61.3333 23.12 59.5467 21.3333 57.3333 21.3333Z" fill="url(#paint0_linear_6_51)"/>
</g>
<defs>
<linearGradient id="paint0_linear_6_51" x1="3.71998e-07" y1="5.70822" x2="76.3535" y2="9.94518" gradientUnits="userSpaceOnUse">
<stop stop-color="#00D1FF"/>
<stop offset="1" stop-color="#C4E0E6"/>
</linearGradient>
<clipPath id="clip0_6_51">
<rect width="64" height="64" fill="white"/>
</clipPath>
</defs>
</svg>
