<svg width="64" height="64" viewBox="0 0 64 64" fill="none" xmlns="http://www.w3.org/2000/svg">
<g id="Layer_1" clip-path="url(#clip0_6_54)">
<path id="Vector" d="M21.3333 9.65333C21.3333 5.78667 24.48 2.66667 28.32 2.66667H29.3333C29.3333 1.2 30.5333 0 32 0C33.4667 0 34.6667 1.2 34.6667 2.66667H35.3867C38.24 2.66667 40.88 4.18667 42.32 6.66667C43.0667 7.94667 42.6133 9.57333 41.36 10.32C40.08 11.0667 38.4533 10.6133 37.7067 9.36C37.2267 8.53333 36.3467 8.02667 35.3867 8.02667H28.3467C27.44 8.02667 26.6933 8.77333 26.6933 9.68C26.6933 10.5067 27.28 11.2 28.08 11.3333L36.8267 12.8C40.2133 13.36 42.6667 16.2667 42.6667 19.7067C42.6667 23.5733 39.52 26.6933 35.68 26.6933H34.6667C34.6667 28.16 33.4667 29.36 32 29.36C30.5333 29.36 29.3333 28.16 29.3333 26.6933H28.6133C25.76 26.6933 23.12 25.1733 21.68 22.6933C20.9333 21.4133 21.3867 19.7867 22.64 19.04C23.92 18.2933 25.5467 18.7467 26.2933 20C26.7733 20.8267 27.6533 21.3333 28.6133 21.3333H35.6533C36.56 21.3333 37.3067 20.5867 37.3067 19.68C37.3067 18.8533 36.72 18.16 35.92 18.0267L27.1733 16.56C23.7867 16 21.3333 13.0933 21.3333 9.65333ZM25.8933 33.4667C23.2 30.9867 18.8 31.4667 16.8 34.8C15.4933 36.96 15.8667 39.7333 17.4667 41.7067L22.24 47.84C23.1467 49.0133 22.9333 50.6667 21.76 51.5733C20.5867 52.48 18.9333 52.2667 18.0267 51.0933L13.2533 44.96C10.2667 41.28 9.84 36.0533 12.24 32.0267C12.56 31.4933 12.96 30.9867 13.36 30.5067V14.9333C13.36 11.44 10.8533 8.26667 7.38667 7.92C3.36 7.52 0 10.6667 0 14.56V42.6933C0 48.3733 2.26667 53.84 6.32 57.84L11.0933 62.5867C12.08 63.4933 13.3867 64 14.72 64H34.6667C36.1333 64 37.3333 62.8 37.3333 61.3333V51.1467C37.3333 46.72 35.52 42.5067 32.2933 39.4933L25.8933 33.4667ZM56.64 7.92C53.1733 8.26667 50.6667 11.44 50.6667 14.9333V30.5067C51.0667 30.9867 51.44 31.4667 51.7867 32.0267C54.2133 36.0267 53.76 41.28 50.7733 44.96L42.6667 53.0133V61.3067C42.6667 62.24 42.48 63.1467 42.1867 63.9733H49.28C50.6133 63.9733 51.92 63.4667 52.9067 62.56L57.68 57.84C61.7333 53.84 64 48.3733 64 42.6933V14.56C64 10.64 60.64 7.52 56.64 7.92ZM47.2 34.7733C45.2 31.44 40.8 30.96 38.1067 33.44L35.8933 35.52L35.9467 35.5733C38.9867 38.4267 41.0667 42.1333 42.0267 46.16L46.5333 41.68C48.1333 39.7333 48.48 36.9333 47.2 34.7733Z" fill="url(#paint0_linear_6_54)"/>
</g>
<defs>
<linearGradient id="paint0_linear_6_54" x1="3.71959e-07" y1="5.71428" x2="76.3455" y2="9.9508" gradientUnits="userSpaceOnUse">
<stop stop-color="#00D1FF"/>
<stop offset="1" stop-color="#C4E0E6"/>
</linearGradient>
<clipPath id="clip0_6_54">
<rect width="64" height="64" fill="white"/>
</clipPath>
</defs>
</svg>
