<svg width="64" height="64" viewBox="0 0 64 64" fill="none" xmlns="http://www.w3.org/2000/svg">
<g id="Layer_1" clip-path="url(#clip0_6_48)">
<path id="Vector" d="M24 0C10.768 0 0 10.768 0 24V48H24C37.232 48 48 37.2347 48 24C48 10.7653 37.232 0 24 0ZM20.384 20.6933L28.496 22.0453C32.072 22.64 34.6693 25.7067 34.6693 29.3333C34.6693 33.744 31.08 37.3333 26.6693 37.3333V40H21.336V37.3333C16.9253 37.3333 13.336 33.744 13.336 29.3333H18.6693C18.6693 30.8027 19.8667 32 21.336 32H26.6693C28.1387 32 29.336 30.8027 29.336 29.3333C29.336 28.3253 28.6133 27.472 27.6187 27.3067L19.5067 25.9547C15.9307 25.36 13.3333 22.2933 13.3333 18.6667C13.3333 14.256 16.9227 10.6667 21.3333 10.6667V8H26.6667V10.6667C31.0773 10.6667 34.6667 14.256 34.6667 18.6667H29.3333C29.3333 17.1973 28.136 16 26.6667 16H21.3333C19.864 16 18.6667 17.1973 18.6667 18.6667C18.6667 19.6747 19.3893 20.528 20.384 20.6933ZM64 42.6667V64H42.6667C34.7867 64 27.9067 59.6933 24.2133 53.3227C40.216 53.208 53.2053 40.216 53.3227 24.2133C59.6933 27.9067 64 34.7867 64 42.6667Z" fill="url(#paint0_linear_6_48)"/>
</g>
<defs>
<linearGradient id="paint0_linear_6_48" x1="3.71959e-07" y1="5.71428" x2="76.3455" y2="9.9508" gradientUnits="userSpaceOnUse">
<stop stop-color="#00D1FF"/>
<stop offset="1" stop-color="#C4E0E6"/>
</linearGradient>
<clipPath id="clip0_6_48">
<rect width="64" height="64" fill="white"/>
</clipPath>
</defs>
</svg>
