<svg width="308" height="32" viewBox="0 0 308 32" fill="none" xmlns="http://www.w3.org/2000/svg">
<path d="M0.476 5.8H6.452C8.492 5.8 9.98 6.28 10.916 7.24C11.852 8.176 12.32 9.628 12.32 11.596V12.604C12.32 13.9 12.104 14.956 11.672 15.772C11.264 16.588 10.628 17.176 9.764 17.536V17.608C11.732 18.28 12.716 20.032 12.716 22.864V25.024C12.716 26.968 12.2 28.456 11.168 29.488C10.16 30.496 8.672 31 6.704 31H0.476V5.8ZM5.984 16.06C6.776 16.06 7.364 15.856 7.748 15.448C8.156 15.04 8.36 14.356 8.36 13.396V11.992C8.36 11.08 8.192 10.42 7.856 10.012C7.544 9.604 7.04 9.4 6.344 9.4H4.436V16.06H5.984ZM6.704 27.4C7.4 27.4 7.916 27.22 8.252 26.86C8.588 26.476 8.756 25.828 8.756 24.916V22.72C8.756 21.568 8.552 20.776 8.144 20.344C7.76 19.888 7.112 19.66 6.2 19.66H4.436V27.4H6.704ZM20.7547 31.36C18.8107 31.36 17.3227 30.808 16.2907 29.704C15.2587 28.6 14.7427 27.04 14.7427 25.024V11.776C14.7427 9.76 15.2587 8.2 16.2907 7.096C17.3227 5.992 18.8107 5.44 20.7547 5.44C22.6987 5.44 24.1867 5.992 25.2187 7.096C26.2507 8.2 26.7667 9.76 26.7667 11.776V25.024C26.7667 27.04 26.2507 28.6 25.2187 29.704C24.1867 30.808 22.6987 31.36 20.7547 31.36ZM20.7547 27.76C22.1227 27.76 22.8067 26.932 22.8067 25.276V11.524C22.8067 9.868 22.1227 9.04 20.7547 9.04C19.3867 9.04 18.7027 9.868 18.7027 11.524V25.276C18.7027 26.932 19.3867 27.76 20.7547 27.76ZM16.2187 0.435999H19.7467V4.108H16.2187V0.435999ZM21.7627 0.435999H25.2907V4.108H21.7627V0.435999ZM29.4448 5.8H35.3128C37.3528 5.8 38.8408 6.28 39.7768 7.24C40.7128 8.176 41.1808 9.628 41.1808 11.596V13.144C41.1808 15.76 40.3168 17.416 38.5888 18.112V18.184C39.5488 18.472 40.2208 19.06 40.6048 19.948C41.0128 20.836 41.2168 22.024 41.2168 23.512V27.94C41.2168 28.66 41.2408 29.248 41.2888 29.704C41.3368 30.136 41.4568 30.568 41.6488 31H37.6168C37.4728 30.592 37.3768 30.208 37.3288 29.848C37.2808 29.488 37.2568 28.84 37.2568 27.904V23.296C37.2568 22.144 37.0648 21.34 36.6808 20.884C36.3208 20.428 35.6848 20.2 34.7728 20.2H33.4048V31H29.4448V5.8ZM34.8448 16.6C35.6368 16.6 36.2248 16.396 36.6088 15.988C37.0168 15.58 37.2207 14.896 37.2207 13.936V11.992C37.2207 11.08 37.0528 10.42 36.7168 10.012C36.4048 9.604 35.9008 9.4 35.2048 9.4H33.4048V16.6H34.8448ZM49.1123 31.36C47.1923 31.36 45.7403 30.82 44.7563 29.74C43.7723 28.636 43.2803 27.064 43.2803 25.024V23.584H47.0243V25.312C47.0243 26.944 47.7083 27.76 49.0763 27.76C49.7483 27.76 50.2523 27.568 50.5883 27.184C50.9483 26.776 51.1283 26.128 51.1283 25.24C51.1283 24.184 50.8883 23.26 50.4083 22.468C49.9283 21.652 49.0403 20.68 47.7443 19.552C46.1123 18.112 44.9723 16.816 44.3243 15.664C43.6763 14.488 43.3523 13.168 43.3523 11.704C43.3523 9.712 43.8563 8.176 44.8643 7.096C45.8723 5.992 47.3363 5.44 49.2563 5.44C51.1523 5.44 52.5803 5.992 53.5403 7.096C54.5243 8.176 55.0163 9.736 55.0163 11.776V12.82H51.2723V11.524C51.2723 10.66 51.1043 10.036 50.7683 9.652C50.4323 9.244 49.9403 9.04 49.2923 9.04C47.9723 9.04 47.3123 9.844 47.3123 11.452C47.3123 12.364 47.5523 13.216 48.0323 14.008C48.5363 14.8 49.4363 15.76 50.7323 16.888C52.3883 18.328 53.5283 19.636 54.1523 20.812C54.7763 21.988 55.0883 23.368 55.0883 24.952C55.0883 27.016 54.5723 28.6 53.5403 29.704C52.5323 30.808 51.0563 31.36 49.1123 31.36ZM57.3588 5.8H68.1588V9.4H61.3188V16.06H66.7548V19.66H61.3188V27.4H68.1588V31H57.3588V5.8ZM70.4369 5.8H75.4049L79.2569 20.884H79.3289V5.8H82.8569V31H78.7889L74.0369 12.604H73.9649V31H70.4369V5.8ZM85.8002 5.8H91.6322C93.6002 5.8 95.0762 6.328 96.0602 7.384C97.0442 8.44 97.5362 9.988 97.5362 12.028V14.512C97.5362 16.552 97.0442 18.1 96.0602 19.156C95.0762 20.212 93.6002 20.74 91.6322 20.74H89.7602V31H85.8002V5.8ZM91.6322 17.14C92.2802 17.14 92.7602 16.96 93.0722 16.6C93.4082 16.24 93.5762 15.628 93.5762 14.764V11.776C93.5762 10.912 93.4082 10.3 93.0722 9.94C92.7602 9.58 92.2802 9.4 91.6322 9.4H89.7602V17.14H91.6322ZM99.6869 5.8H105.555C107.595 5.8 109.083 6.28 110.019 7.24C110.955 8.176 111.423 9.628 111.423 11.596V13.144C111.423 15.76 110.559 17.416 108.831 18.112V18.184C109.791 18.472 110.463 19.06 110.847 19.948C111.255 20.836 111.459 22.024 111.459 23.512V27.94C111.459 28.66 111.483 29.248 111.531 29.704C111.579 30.136 111.699 30.568 111.891 31H107.859C107.715 30.592 107.619 30.208 107.571 29.848C107.523 29.488 107.499 28.84 107.499 27.904V23.296C107.499 22.144 107.307 21.34 106.923 20.884C106.563 20.428 105.927 20.2 105.015 20.2H103.647V31H99.6869V5.8ZM105.087 16.6C105.879 16.6 106.467 16.396 106.851 15.988C107.259 15.58 107.463 14.896 107.463 13.936V11.992C107.463 11.08 107.295 10.42 106.959 10.012C106.647 9.604 106.143 9.4 105.447 9.4H103.647V16.6H105.087ZM119.93 31.36C117.986 31.36 116.498 30.808 115.466 29.704C114.434 28.6 113.918 27.04 113.918 25.024V11.776C113.918 9.76 114.434 8.2 115.466 7.096C116.498 5.992 117.986 5.44 119.93 5.44C121.874 5.44 123.362 5.992 124.394 7.096C125.426 8.2 125.942 9.76 125.942 11.776V25.024C125.942 27.04 125.426 28.6 124.394 29.704C123.362 30.808 121.874 31.36 119.93 31.36ZM119.93 27.76C121.298 27.76 121.982 26.932 121.982 25.276V11.524C121.982 9.868 121.298 9.04 119.93 9.04C118.562 9.04 117.878 9.868 117.878 11.524V25.276C117.878 26.932 118.562 27.76 119.93 27.76ZM134.237 31.36C132.317 31.36 130.853 30.82 129.845 29.74C128.837 28.636 128.333 27.064 128.333 25.024V11.776C128.333 9.736 128.837 8.176 129.845 7.096C130.853 5.992 132.317 5.44 134.237 5.44C136.157 5.44 137.621 5.992 138.629 7.096C139.637 8.176 140.141 9.736 140.141 11.776V13.936H136.397V11.524C136.397 9.868 135.713 9.04 134.345 9.04C132.977 9.04 132.293 9.868 132.293 11.524V25.312C132.293 26.944 132.977 27.76 134.345 27.76C135.713 27.76 136.397 26.944 136.397 25.312V20.38H134.417V16.78H140.141V25.024C140.141 27.064 139.637 28.636 138.629 29.74C137.621 30.82 136.157 31.36 134.237 31.36ZM142.683 5.8H147.651L151.503 20.884H151.575V5.8H155.103V31H151.035L146.283 12.604H146.211V31H142.683V5.8ZM163.77 31.36C161.826 31.36 160.338 30.808 159.306 29.704C158.274 28.6 157.758 27.04 157.758 25.024V11.776C157.758 9.76 158.274 8.2 159.306 7.096C160.338 5.992 161.826 5.44 163.77 5.44C165.714 5.44 167.202 5.992 168.234 7.096C169.266 8.2 169.782 9.76 169.782 11.776V25.024C169.782 27.04 169.266 28.6 168.234 29.704C167.202 30.808 165.714 31.36 163.77 31.36ZM163.77 27.76C165.138 27.76 165.822 26.932 165.822 25.276V11.524C165.822 9.868 165.138 9.04 163.77 9.04C162.402 9.04 161.718 9.868 161.718 11.524V25.276C161.718 26.932 162.402 27.76 163.77 27.76ZM177.608 31.36C175.688 31.36 174.236 30.82 173.252 29.74C172.268 28.636 171.776 27.064 171.776 25.024V23.584H175.52V25.312C175.52 26.944 176.204 27.76 177.572 27.76C178.244 27.76 178.748 27.568 179.084 27.184C179.444 26.776 179.624 26.128 179.624 25.24C179.624 24.184 179.384 23.26 178.904 22.468C178.424 21.652 177.536 20.68 176.24 19.552C174.608 18.112 173.468 16.816 172.82 15.664C172.172 14.488 171.848 13.168 171.848 11.704C171.848 9.712 172.352 8.176 173.36 7.096C174.368 5.992 175.832 5.44 177.752 5.44C179.648 5.44 181.076 5.992 182.036 7.096C183.02 8.176 183.512 9.736 183.512 11.776V12.82H179.768V11.524C179.768 10.66 179.6 10.036 179.264 9.652C178.928 9.244 178.436 9.04 177.788 9.04C176.468 9.04 175.808 9.844 175.808 11.452C175.808 12.364 176.048 13.216 176.528 14.008C177.032 14.8 177.932 15.76 179.228 16.888C180.884 18.328 182.024 19.636 182.648 20.812C183.272 21.988 183.584 23.368 183.584 24.952C183.584 27.016 183.068 28.6 182.036 29.704C181.028 30.808 179.552 31.36 177.608 31.36ZM185.855 5.8H196.655V9.4H189.815V16.06H195.251V19.66H189.815V27.4H196.655V31H185.855V5.8ZM198.933 5.8H203.901L207.753 20.884H207.825V5.8H211.353V31H207.285L202.533 12.604H202.461V31H198.933V5.8ZM217.356 5.8H222.72L226.824 31H222.864L222.144 25.996V26.068H217.644L216.924 31H213.252L217.356 5.8ZM221.676 22.648L219.912 10.192H219.84L218.112 22.648H221.676ZM228.746 5.8H232.706V16.42L237.746 5.8H241.706L236.99 15.052L241.778 31H237.638L234.29 19.768L232.706 22.972V31H228.746V5.8ZM246.748 9.4H242.608V5.8H254.848V9.4H250.708V31H246.748V9.4ZM262.525 31.36C260.605 31.36 259.141 30.82 258.133 29.74C257.125 28.636 256.621 27.064 256.621 25.024V5.8H260.581V25.312C260.581 26.176 260.749 26.8 261.085 27.184C261.445 27.568 261.949 27.76 262.597 27.76C263.245 27.76 263.737 27.568 264.073 27.184C264.433 26.8 264.613 26.176 264.613 25.312V5.8H268.429V25.024C268.429 27.064 267.925 28.636 266.917 29.74C265.909 30.82 264.445 31.36 262.525 31.36ZM271.249 5.8H282.049V9.4H275.209V16.06H280.645V19.66H275.209V27.4H282.049V31H271.249V5.8ZM284.328 5.8H288.288V27.4H294.804V31H284.328V5.8ZM296.703 5.8H300.663V27.4H307.179V31H296.703V5.8Z" fill="url(#paint0_linear_3_2)"/>
<defs>
<linearGradient id="paint0_linear_3_2" x1="-0.999998" y1="8.23214" x2="250.452" y2="180.696" gradientUnits="userSpaceOnUse">
<stop stop-color="#00D1FF"/>
<stop offset="1" stop-color="#C4E0E6"/>
</linearGradient>
</defs>
</svg>
