<svg width="112" height="112" viewBox="0 0 112 112" fill="none" xmlns="http://www.w3.org/2000/svg">
<g id="octicon:play-24">
<path id="Vector" d="M44.3333 72.7253V39.2747C44.334 38.8561 44.4473 38.4455 44.6612 38.0858C44.8752 37.7261 45.1819 37.4305 45.5494 37.2301C45.9168 37.0297 46.3313 36.9318 46.7496 36.9467C47.1679 36.9616 47.5744 37.0887 47.9267 37.3147L73.948 54.0353C74.2775 54.2464 74.5486 54.537 74.7364 54.8803C74.9241 55.2237 75.0226 55.6087 75.0226 56C75.0226 56.3913 74.9241 56.7763 74.7364 57.1197C74.5486 57.463 74.2775 57.7536 73.948 57.9647L47.9267 74.69C47.5744 74.916 47.1679 75.0431 46.7496 75.058C46.3313 75.0729 45.9168 74.975 45.5494 74.7745C45.1819 74.5741 44.8752 74.2786 44.6612 73.9189C44.4473 73.5592 44.334 73.1485 44.3333 72.73V72.7253Z" fill="white"/>
<path id="Vector_2" d="M4.66667 56C4.66667 27.65 27.65 4.66667 56 4.66667C84.35 4.66667 107.333 27.65 107.333 56C107.333 84.35 84.35 107.333 56 107.333C27.65 107.333 4.66667 84.35 4.66667 56ZM56 11.6667C44.2421 11.6667 32.9657 16.3375 24.6516 24.6516C16.3375 32.9657 11.6667 44.2421 11.6667 56C11.6667 67.7579 16.3375 79.0343 24.6516 87.3484C32.9657 95.6625 44.2421 100.333 56 100.333C67.7579 100.333 79.0343 95.6625 87.3484 87.3484C95.6625 79.0343 100.333 67.7579 100.333 56C100.333 44.2421 95.6625 32.9657 87.3484 24.6516C79.0343 16.3375 67.7579 11.6667 56 11.6667Z" fill="white"/>
</g>
</svg>
